<svg xmlns="http://www.w3.org/2000/svg" xmlns:v="https://vecta.io/nano" width="152" height="45" fill="none"><path fill="url(#A)" d="M0 0h45v45H0z"></path><g fill="#fff"><path d="M54.49 25V5.38h11.85v2.94h-8.37v5.55h7.14v2.94h-7.14V25h-3.48zm14.993 0V10.27h3.45V25h-3.45zm1.74-17.31c-.62 0-1.13-.18-1.53-.54s-.6-.83-.6-1.41.2-1.05.6-1.41c.4-.38.91-.57 1.53-.57s1.13.19 1.53.57c.4.36.6.83.6 1.41s-.2 1.05-.6 1.41-.91.54-1.53.54zM77.335 25V10.27h2.85l.24 1.98h.12c.66-.64 1.37-1.19 2.13-1.65.78-.46 1.68-.69 2.7-.69 1.58 0 2.73.51 3.45 1.53.72 1 1.08 2.44 1.08 4.32V25h-3.45v-8.79c0-1.22-.18-2.08-.54-2.58s-.95-.75-1.77-.75c-.64 0-1.21.16-1.71.48-.48.3-1.03.75-1.65 1.35V25h-3.45zm23.927.36c-.68 0-1.37-.16-2.07-.48-.68-.34-1.33-.82-1.95-1.44h-.09l-.3 1.56h-2.73V3.82h3.45v5.46l-.09 2.46a8.72 8.72 0 0 1 2.01-1.32c.74-.34 1.49-.51 2.25-.51.92 0 1.74.18 2.46.54.72.34 1.33.84 1.83 1.5.5.64.88 1.42 1.14 2.34s.39 1.95.39 3.09c0 1.26-.18 2.39-.54 3.39-.34.98-.8 1.81-1.38 2.49s-1.25 1.2-2.01 1.56-1.55.54-2.37.54zm-.72-2.85c.98 0 1.8-.42 2.46-1.26.66-.86.99-2.13.99-3.81 0-1.48-.25-2.63-.75-3.45s-1.31-1.23-2.43-1.23c-1.04 0-2.12.55-3.24 1.65v6.87c.52.46 1.03.78 1.53.96.52.18 1 .27 1.44.27z"></path><path d="M115.406 25.36c-1.58 0-2.73-.5-3.45-1.5-.72-1.02-1.08-2.47-1.08-4.35v-9.24h3.45v8.79c0 1.22.18 2.08.54 2.58s.94.75 1.74.75c.64 0 1.2-.16 1.68-.48.5-.32 1.03-.84 1.59-1.56V10.27h3.45V25h-2.82l-.27-2.16h-.09c-.64.76-1.34 1.37-2.1 1.83-.74.46-1.62.69-2.64.69zm11.12-.36v-1.86l6.96-10.14h-6.18v-2.73h10.5v1.83l-6.93 10.14h7.17V25h-11.52zm13.301 0v-1.86l6.96-10.14h-6.18v-2.73h10.5v1.83l-6.93 10.14h7.17V25h-11.52zM57.44 39.12a3.04 3.04 0 0 1-1.16-.22 2.62 2.62 0 0 1-.94-.65c-.26-.287-.467-.64-.62-1.06s-.23-.9-.23-1.44c0-.533.077-1.01.23-1.43.16-.427.373-.787.64-1.08a2.77 2.77 0 0 1 .95-.67 3.01 3.01 0 0 1 1.17-.23c.413 0 .78.083 1.1.25s.583.36.79.58l-.62.75a2.16 2.16 0 0 0-.56-.41 1.42 1.42 0 0 0-.68-.16 1.63 1.63 0 0 0-.74.17 1.69 1.69 0 0 0-.58.47c-.16.2-.287.447-.38.74a3.49 3.49 0 0 0-.13.99c0 .747.16 1.333.48 1.76.327.42.767.63 1.32.63.293 0 .553-.06.78-.18a2.55 2.55 0 0 0 .62-.49l.62.73c-.267.307-.573.543-.92.71-.34.16-.72.24-1.14.24zm6.062 0a2.33 2.33 0 0 1-.88-.17 2.24 2.24 0 0 1-.75-.5c-.213-.22-.383-.49-.51-.81s-.19-.683-.19-1.09.063-.77.19-1.09.297-.59.51-.81a2.24 2.24 0 0 1 .75-.5 2.21 2.21 0 0 1 .88-.18 2.21 2.21 0 0 1 .88.18c.287.113.537.28.75.5a2.43 2.43 0 0 1 .51.81 2.81 2.81 0 0 1 .2 1.09 2.81 2.81 0 0 1-.2 1.09 2.43 2.43 0 0 1-.51.81c-.213.22-.463.387-.75.5a2.33 2.33 0 0 1-.88.17zm0-.94c.36 0 .643-.147.85-.44.207-.3.31-.697.31-1.19 0-.5-.103-.897-.31-1.19-.207-.3-.49-.45-.85-.45s-.643.15-.85.45c-.2.293-.3.69-.3 1.19 0 .493.1.89.3 1.19.207.293.49.44.85.44zm4.478.82v-4.91h.95l.08.66h.04c.22-.213.457-.397.71-.55.26-.153.56-.23.9-.23.527 0 .91.17 1.15.51.24.333.36.813.36 1.44V39h-1.15v-2.93c0-.407-.06-.693-.18-.86s-.317-.25-.59-.25c-.213 0-.403.053-.57.16a3.49 3.49 0 0 0-.55.45V39h-1.15zm7.966.12c-.34 0-.677-.063-1.01-.19a3.38 3.38 0 0 1-.85-.49l.54-.74c.22.173.437.31.65.41a1.8 1.8 0 0 0 .71.14c.267 0 .463-.053.59-.16a.55.55 0 0 0 .19-.43c0-.1-.03-.187-.09-.26-.06-.08-.14-.15-.24-.21s-.213-.113-.34-.16l-.38-.16-.49-.21a2.08 2.08 0 0 1-.45-.29 1.64 1.64 0 0 1-.32-.39 1.15 1.15 0 0 1-.12-.54c0-.433.16-.787.48-1.06s.757-.41 1.31-.41c.34 0 .647.06.92.18a3.45 3.45 0 0 1 .71.41l-.53.7a2.49 2.49 0 0 0-.53-.3c-.173-.08-.357-.12-.55-.12-.247 0-.43.053-.55.16-.113.1-.17.227-.17.38a.43.43 0 0 0 .08.26.92.92 0 0 0 .23.18c.093.053.2.103.32.15l.39.14a5.32 5.32 0 0 1 .5.21c.167.073.317.167.45.28a1.2 1.2 0 0 1 .33.42c.087.16.13.353.13.58 0 .213-.043.413-.13.6a1.38 1.38 0 0 1-.36.48c-.16.133-.36.24-.6.32s-.513.12-.82.12zm5.397 0c-.527 0-.91-.167-1.15-.5-.24-.34-.36-.823-.36-1.45v-3.08h1.15v2.93c0 .407.06.693.18.86s.313.25.58.25c.213 0 .4-.053.56-.16.167-.107.343-.28.53-.52v-3.36h1.15V39h-.94l-.09-.72h-.03a2.84 2.84 0 0 1-.7.61c-.247.153-.54.23-.88.23zm6.217 0c-.413 0-.703-.123-.87-.37s-.25-.583-.25-1.01v-5.8h1.15v5.86c0 .14.027.24.08.3.053.053.11.08.17.08h.07a.43.43 0 0 0 .11-.02l.15.86c-.153.067-.357.1-.61.1zm4.325 0c-.287 0-.53-.043-.73-.13-.193-.087-.353-.207-.48-.36-.12-.16-.21-.347-.27-.56a3.1 3.1 0 0 1-.08-.73V35h-.7v-.86l.76-.05.14-1.34h.96v1.34h1.25V35h-1.25v2.34c0 .573.23.86.69.86a1.15 1.15 0 0 0 .26-.03c.093-.02.177-.047.25-.08l.2.85a3.18 3.18 0 0 1-.46.12 2.31 2.31 0 0 1-.54.06zm2.883-.12v-4.91h1.15V39h-1.15zm.58-5.77c-.207 0-.377-.06-.51-.18s-.2-.277-.2-.47.067-.35.2-.47a.71.71 0 0 1 .51-.19.71.71 0 0 1 .51.19c.133.12.2.277.2.47s-.067.35-.2.47-.303.18-.51.18zM98.384 39v-4.91h.95l.08.66h.04c.22-.213.457-.397.71-.55.26-.153.56-.23.9-.23.527 0 .91.17 1.15.51.24.333.36.813.36 1.44V39h-1.15v-2.93c0-.407-.06-.693-.18-.86s-.316-.25-.59-.25c-.213 0-.403.053-.57.16-.16.1-.343.25-.55.45V39h-1.15zm8.306 2.17a3.98 3.98 0 0 1-.82-.08 2.11 2.11 0 0 1-.64-.24 1.31 1.31 0 0 1-.43-.4c-.1-.16-.15-.347-.15-.56 0-.207.06-.4.18-.58a1.71 1.71 0 0 1 .52-.47v-.04a1.05 1.05 0 0 1-.32-.32c-.08-.133-.12-.3-.12-.5 0-.193.053-.367.16-.52.113-.16.24-.29.38-.39v-.04c-.167-.127-.317-.3-.45-.52a1.57 1.57 0 0 1-.19-.78c0-.28.053-.53.16-.75s.247-.403.42-.55a1.76 1.76 0 0 1 .62-.34c.233-.08.48-.12.74-.12a1.75 1.75 0 0 1 .38.04c.127.02.24.047.34.08h1.76v.85h-.9a1.14 1.14 0 0 1 .2.36 1.32 1.32 0 0 1 .08.47c0 .273-.05.513-.15.72-.093.207-.223.38-.39.52a1.73 1.73 0 0 1-.59.32 2.36 2.36 0 0 1-.73.11 1.89 1.89 0 0 1-.33-.03 1.64 1.64 0 0 1-.34-.1 1.25 1.25 0 0 0-.18.2c-.04.067-.06.157-.06.27 0 .14.057.25.17.33.12.08.33.12.63.12h.87c.593 0 1.04.097 1.34.29.307.187.46.493.46.92 0 .24-.063.467-.19.68-.12.213-.293.397-.52.55a2.73 2.73 0 0 1-.83.36c-.32.093-.68.14-1.08.14zm.06-4.45a.82.82 0 0 0 .6-.25c.167-.173.25-.42.25-.74 0-.307-.083-.543-.25-.71a.78.78 0 0 0-.6-.26.83.83 0 0 0-.61.25c-.167.167-.25.407-.25.72 0 .32.083.567.25.74a.83.83 0 0 0 .61.25zm.12 3.7c.4 0 .72-.08.96-.24.247-.153.37-.337.37-.55 0-.193-.077-.323-.23-.39-.147-.067-.36-.1-.64-.1h-.67a2.7 2.7 0 0 1-.67-.07c-.253.193-.38.41-.38.65 0 .22.11.39.33.51.227.127.537.19.93.19zm8.727-1.42v-5.56h-1.89v-.98h4.94v.98h-1.89V39h-1.16zm5.039 0v-7.06h1.15v1.82l-.04.95a3.98 3.98 0 0 1 .68-.51 1.69 1.69 0 0 1 .89-.23c.527 0 .91.17 1.15.51.24.333.36.813.36 1.44V39h-1.15v-2.93c0-.407-.06-.693-.18-.86s-.316-.25-.59-.25c-.213 0-.403.053-.57.16-.16.1-.343.25-.55.45V39h-1.15zm8.676.12c-.34 0-.656-.057-.95-.17a2.32 2.32 0 0 1-.77-.51 2.38 2.38 0 0 1-.52-.8c-.12-.32-.18-.683-.18-1.09 0-.4.064-.76.19-1.08s.294-.59.5-.81c.214-.22.457-.39.73-.51a2.07 2.07 0 0 1 .84-.18c.334 0 .627.057.88.17a1.66 1.66 0 0 1 .63.48c.174.207.304.453.39.74a3.26 3.26 0 0 1 .13.94 2.32 2.32 0 0 1-.02.32c-.006.1-.016.18-.03.24h-3.12c.054.44.207.78.46 1.02.26.233.59.35.99.35.214 0 .41-.03.59-.09.187-.067.37-.157.55-.27l.39.72a3.52 3.52 0 0 1-.78.38c-.286.1-.586.15-.9.15zm-1.31-3.04h2.18c0-.38-.083-.677-.25-.89-.16-.22-.41-.33-.75-.33a1.09 1.09 0 0 0-.77.31c-.22.207-.356.51-.41.91zm5.279 2.92v-4.91h.95l.08.67h.04c.206-.22.43-.407.67-.56a1.54 1.54 0 0 1 .83-.23c.36 0 .646.077.86.23.22.153.386.37.5.65a3.92 3.92 0 0 1 .73-.63 1.51 1.51 0 0 1 .85-.25c.52 0 .903.17 1.15.51.246.333.37.813.37 1.44V39h-1.16v-2.93c0-.407-.064-.693-.19-.86-.12-.167-.307-.25-.56-.25-.307 0-.65.203-1.03.61V39h-1.15v-2.93c0-.407-.064-.693-.19-.86-.12-.167-.31-.25-.57-.25-.307 0-.65.203-1.03.61V39h-1.15zm11.528.12a2.62 2.62 0 0 1-.95-.17 2.31 2.31 0 0 1-.77-.51c-.22-.22-.394-.487-.52-.8-.12-.32-.18-.683-.18-1.09 0-.4.063-.76.19-1.08s.293-.59.5-.81c.213-.22.456-.39.73-.51a2.07 2.07 0 0 1 .84-.18 2.14 2.14 0 0 1 .88.17 1.67 1.67 0 0 1 .63.48c.173.207.303.453.39.74a3.26 3.26 0 0 1 .13.94c0 .113-.007.22-.02.32-.007.1-.017.18-.03.24h-3.12c.053.44.206.78.46 1.02.26.233.59.35.99.35.213 0 .41-.03.59-.09a2.82 2.82 0 0 0 .55-.27l.39.72a3.56 3.56 0 0 1-.78.38c-.287.1-.587.15-.9.15zm-1.31-3.04h2.18c0-.38-.084-.677-.25-.89-.16-.22-.41-.33-.75-.33-.294 0-.55.103-.77.31s-.357.51-.41.91zM35.423 19.927l3.791.406c.156 0 .274.122.313.284s0 .325-.078.406L38.315 22.2l6.645 6.897v2.272l-7.739-7.993-1.134 1.177c-.117.122-.274.162-.391.081-.156-.04-.235-.162-.274-.325l-.43-3.935c0-.244.195-.487.43-.446zm-6.567-3.57c.195 0 .352.162.391.325.078.162 0 .365-.117.527l-1.368 1.42L45 36.521v2.799L26.394 20.048l-1.407 1.461c-.117.122-.313.162-.508.122-.156-.081-.313-.243-.313-.406l-.508-4.869c-.039-.284.234-.568.508-.528l4.691.528zM35.267 45L20.492 29.664l-1.407 1.461c-.117.122-.313.162-.508.122-.156-.081-.313-.243-.313-.406l-.508-4.869c-.039-.284.234-.568.508-.527l4.691.527c.195 0 .352.162.391.325.078.162 0 .365-.117.527l-1.407 1.461L37.925 45h-2.658zm6.88 0L17.404 19.277l-1.759 1.826c-.156.162-.391.243-.625.162s-.352-.284-.391-.527l-.625-6.045c-.039-.365.313-.73.665-.69l5.824.649a.67.67 0 0 1 .508.406c.078.243.039.487-.156.649l-1.759 1.826 25.876 26.859v.568h-2.814V45z"></path></g><defs><linearGradient id="A" x1="0" y1="0" x2="45" y2="0" gradientUnits="userSpaceOnUse"><stop stop-color="#fa380b"></stop><stop offset="1" stop-color="#ff5b16"></stop><stop offset="1" stop-color="#fb142f" stop-opacity="0"></stop></linearGradient></defs></svg>