<svg xmlns="http://www.w3.org/2000/svg" width="71" height="79" viewBox="0 0 71 79" fill="none"><path d="M24.4232 57.3307H35.6348C38.4886 57.3307 40.731 55.1181 40.731 52.3021C40.731 49.4862 38.4886 47.2736 35.6348 47.2736H29.5194C26.6655 47.2736 24.4232 45.0611 24.4232 42.2451C24.4232 39.4291 26.6655 37.2166 29.5194 37.2166H38.6925" stroke="#FA360A" stroke-width="2.5" stroke-miterlimit="10" stroke-linecap="round" stroke-linejoin="round"></path><path d="M32.5771 31.1823V37.2165" stroke="#FA360A" stroke-width="2.5" stroke-miterlimit="10" stroke-linecap="round" stroke-linejoin="round"></path><path d="M32.5771 57.3306V61.3534" stroke="#FA360A" stroke-width="2.5" stroke-miterlimit="10" stroke-linecap="round" stroke-linejoin="round"></path><path d="M50.7195 77.4447H14.2308C7.50387 77.4447 2 72.2151 2 65.7786V65.1751C2 52.3021 6.28079 39.6302 14.2308 29.1709L25.0347 15.091H37.6733L47.6618 26.1538C57.6503 37.2165 62.9503 51.0953 62.9503 65.7786C63.1542 72.2151 57.6503 77.4447 50.7195 77.4447Z" stroke="#333333" stroke-width="2.5" stroke-miterlimit="10" stroke-linecap="round" stroke-linejoin="round"></path><path d="M37.2655 15.2922C37.2655 15.2922 37.2655 15.091 37.2655 15.2922L38.0809 14.2865C40.3233 11.0682 41.5463 7.44766 41.5463 3.62598C41.5463 1.81571 39.5079 0.608863 37.6732 1.61457L32.1694 4.83282C31.354 5.23511 30.3347 5.23511 29.5194 4.83282L24.0155 1.61457C22.3847 0.608863 20.1424 1.81571 20.1424 3.62598C20.1424 7.6488 21.5693 11.6716 24.0155 14.8899L24.2193 15.091" stroke="#333333" stroke-width="2.5" stroke-miterlimit="10" stroke-linecap="round" stroke-linejoin="round"></path><path d="M56.7741 3.11125L59.8854 0L60.7741 0.888749L57.6629 4L60.7741 7.11125L59.8854 8L56.7741 4.88875L53.6629 8L52.7741 7.11125L55.8854 4L52.7741 0.888749L53.6629 0L56.7741 3.11125Z" fill="#ACACAC"></path><circle cx="66.7741" cy="15" r="3.25" stroke="#ACACAC" stroke-width="1.5"></circle></svg>