<svg xmlns="http://www.w3.org/2000/svg" width="80" height="82" viewBox="0 0 80 82" fill="none"><path d="M38.0687 36.1809C38.6392 35.9954 38.9244 35.4388 38.9244 34.8821V1.39157C38.9244 0.649402 38.2589 0 37.4982 0C28.1801 0 19.3375 3.52532 12.5866 9.8338C12.3014 10.1121 12.2063 10.3904 12.1112 10.7615C12.1112 11.1326 12.2063 11.5037 12.4915 11.782L36.3572 35.8099C36.6425 36.0882 37.0228 36.1809 37.4031 36.1809C37.6884 36.2737 37.8785 36.1809 38.0687 36.1809Z" fill="#333333"></path><path d="M36.072 31.4496L15.6292 10.8542C21.3342 5.93735 28.4654 3.06143 36.072 2.78311V31.4496Z" fill="#FC7263"></path><path d="M37.4031 42.0256C37.4031 41.6545 37.308 41.1906 37.0228 40.9123L13.062 16.8845C12.7768 16.6061 12.4915 16.5134 12.1112 16.5134C11.7309 16.5134 11.3505 16.6061 11.0653 16.8845C4.12427 23.4712 0.225891 32.3773 0.225891 41.9328C0.225891 49.169 2.50787 56.1269 6.78658 62.0643C7.07183 62.4353 7.45215 62.6209 7.92757 62.6209C8.21281 62.6209 8.49806 62.5281 8.78331 62.3426L36.8326 42.9533C37.1179 42.7677 37.308 42.4894 37.4031 42.0256Z" fill="#333333"></path><path d="M8.30787 59.3738C4.8849 54.1786 3.07834 48.1485 3.07834 41.9328C3.07834 33.5833 6.31114 25.7905 12.1112 19.8531L33.79 41.7472L8.30787 59.3738Z" fill="#FA360A"></path><path d="M79.7147 40.8195C79.6197 40.2629 79.5246 39.7063 79.4295 39.1496C79.2393 37.9436 78.9541 36.7376 78.5737 35.6243C78.3836 35.1604 78.2885 34.6038 78.0983 34.14C77.718 33.1195 77.3377 32.0062 76.8623 30.9857C76.6721 30.5219 76.4819 30.058 76.1967 29.6869C75.7213 28.7592 75.1508 27.7387 74.5803 26.9038C74.295 26.5327 74.1049 26.0688 73.8196 25.6977C73.154 24.77 72.3934 23.8423 71.6327 22.9146C71.3475 22.5435 71.0622 22.1724 70.6819 21.8941C70.0163 21.1519 69.2557 20.4097 68.3999 19.6676C68.0196 19.3893 67.7343 19.0182 67.354 18.7399C66.4983 18.0905 65.7376 17.4411 64.7868 16.7917C64.4065 16.5133 64.0261 16.235 63.6458 15.9567C62.695 15.3073 61.7442 14.7507 60.7933 14.2868C60.3179 14.1013 59.9376 13.823 59.4622 13.6374C58.3212 13.0808 57.0851 12.6169 55.9441 12.1531C55.4687 11.9675 54.9933 11.782 54.4228 11.6892C53.2818 11.3181 52.0458 11.0398 50.8097 10.7615C50.2392 10.6687 49.6687 10.576 49.0982 10.4832C47.767 10.2976 46.3408 10.1121 45.0097 10.1121C44.5342 10.1121 44.0588 10.1121 43.5834 10.1121C42.4424 10.1121 41.4916 11.0398 41.4916 12.1531V44.6232L14.3931 63.2703C13.9177 63.5486 13.6325 64.1052 13.5374 64.5691C13.4423 65.1257 13.5374 65.6823 13.9177 66.0534L14.0128 66.239C14.5833 67.0739 15.2489 67.8161 16.0095 68.7438C16.2948 69.1149 16.6751 69.486 16.9603 69.7643C17.6259 70.5065 18.3866 71.2486 19.2423 71.9908C19.6227 72.2691 19.9079 72.6402 20.2882 72.9185C21.3341 73.7535 22.1899 74.4029 23.1407 75.0523C23.521 75.2378 23.8063 75.5161 24.1866 75.7017L24.3768 75.7944C25.3276 76.3511 26.2784 76.9077 27.2292 77.3716C27.7047 77.5571 28.085 77.8354 28.5604 78.021C29.5112 78.4848 30.6522 78.8559 31.7932 79.227C32.2686 79.4125 32.8391 79.5981 33.3145 79.6909C34.5506 80.0619 35.7867 80.3403 36.9276 80.5258C37.4981 80.6186 38.0686 80.7113 38.6391 80.8041C40.2555 80.9897 41.7769 81.0824 43.2982 81.0824H43.3933C44.0588 81.0824 44.7244 81.0824 45.39 80.9897C47.1015 80.8969 48.813 80.7113 50.5244 80.3403C51.3802 80.1547 52.2359 79.9692 53.1867 79.6909C55.849 78.9487 58.4163 77.9282 60.7933 76.7222C63.1704 75.4234 65.4524 73.939 67.5442 72.0836C68.6852 71.0631 69.8262 70.0426 70.777 68.9293C72.5835 66.8884 74.2 64.6618 75.5311 62.3425C76.8623 60.0233 77.8131 57.5184 78.5737 54.9208C78.859 53.9931 79.0492 53.1582 79.2393 52.3232C79.6197 50.6533 79.8098 48.9834 79.9049 47.3135C79.9049 46.6641 80 46.0147 80 45.3653V45.2726C80 43.9738 79.9049 42.3966 79.7147 40.8195ZM77.1475 47.3135C77.0524 48.8907 76.8623 50.4678 76.577 51.9521C76.3869 52.6943 76.1967 53.5292 76.0065 54.3642C75.3409 56.7762 74.3901 59.0028 73.154 61.1365C71.918 63.2703 70.4917 65.3112 68.7803 67.1667C67.8294 68.1872 66.8786 69.2077 65.7376 70.1354C63.836 71.8053 61.7442 73.1968 59.5573 74.4029C57.3704 75.6089 54.9933 76.5366 52.5212 77.186C51.6654 77.4643 50.9048 77.6499 50.049 77.7427C48.4326 78.021 46.9113 78.2065 45.2949 78.2993C44.7244 78.2993 44.0588 78.392 43.4883 78.392H43.3933C41.967 78.392 40.5408 78.2993 39.0195 78.1137C38.449 78.021 37.9736 77.9282 37.4031 77.8354C36.3572 77.6499 35.2162 77.3716 34.0752 77.0005C33.5998 76.9077 33.1244 76.7222 32.6489 76.5366C31.508 76.1655 30.5571 75.7944 29.6063 75.4234C29.226 75.2378 28.7506 75.0523 28.3702 74.8667C27.5145 74.4029 26.5637 73.939 25.7079 73.3824L25.5178 73.2896C25.2325 73.1041 24.8522 72.9185 24.5669 72.733C23.9014 72.0836 23.0456 71.4342 22.0948 70.692C21.7145 70.4137 21.4292 70.1354 21.144 69.8571C20.3833 69.2077 19.7177 68.5582 19.0522 67.8161C18.7669 67.5378 18.4817 67.1667 18.1964 66.8884C17.6259 66.239 17.1505 65.5896 16.6751 65.0329L43.7736 46.293C44.1539 46.0147 44.3441 45.6436 44.3441 45.1798V12.7097C44.5342 12.7097 44.7244 12.7097 45.0097 12.7097C46.3408 12.8025 47.5769 12.8952 48.8129 13.0808C49.3834 13.1736 49.8589 13.2663 50.4294 13.3591C51.5703 13.5446 52.7113 13.823 53.7572 14.194C54.2326 14.3796 54.7081 14.4724 55.1835 14.6579C56.3245 15.029 57.3704 15.4928 58.4163 15.9567C58.7966 16.1423 59.272 16.3278 59.6523 16.6061C60.5081 17.07 61.3638 17.5338 62.2196 18.0905C62.5999 18.3688 62.9802 18.5543 63.2655 18.8326C64.0261 19.3893 64.8819 20.0387 65.6425 20.5953C65.9278 20.8736 66.3081 21.1519 66.5934 21.4302C67.354 22.0796 68.0196 22.8218 68.6852 23.4712C68.9704 23.7495 69.2557 24.1206 69.5409 24.3989C70.2065 25.2339 70.8721 26.0688 71.5376 26.9965C71.8229 27.3676 72.0131 27.7387 72.2983 28.1098C72.8688 28.9447 73.3442 29.8725 73.8196 30.7074C74.0098 31.0785 74.2 31.5424 74.3901 31.9134C74.8655 32.8412 75.2459 33.8616 75.5311 34.7894C75.7213 35.2532 75.8164 35.7171 76.0065 36.1809C76.2918 37.2014 76.577 38.3147 76.7672 39.4279C76.8623 39.9846 76.9573 40.4484 77.0524 41.0051C77.2426 42.4894 77.3377 43.881 77.3377 45.2726V45.3653C77.2426 46.1075 77.1475 46.6641 77.1475 47.3135Z" fill="#333333"></path><path d="M65 3.11125L68.1113 0L69 0.888749L65.8888 4L69 7.11125L68.1113 8L65 4.88875L61.8888 8L61 7.11125L64.1113 4L61 0.888749L61.8888 0L65 3.11125Z" fill="#ACACAC"></path><circle cx="75" cy="15" r="3.25" stroke="#ACACAC" stroke-width="1.5"></circle></svg>