<svg xmlns="http://www.w3.org/2000/svg" width="70" height="70" viewBox="0 0 70 70" fill="none"><path d="M55.7741 3.11125L58.8854 0L59.7741 0.888749L56.6629 4L59.7741 7.11125L58.8854 8L55.7741 4.88875L52.6629 8L51.7741 7.11125L54.8854 4L51.7741 0.888749L52.6629 0L55.7741 3.11125Z" fill="#ACACAC"></path><circle cx="65.7741" cy="15" r="3.25" stroke="#ACACAC" stroke-width="1.5"></circle><path d="M14.7857 40.4991C18.615 40.346 22.4444 41.7245 25.3547 44.6348C30.869 50.1491 30.869 59.3395 25.3547 64.8538C19.8404 70.3681 10.65 70.3681 5.1357 64.8538C2.37857 62.0967 1 58.4205 1 54.7443C1 51.6808 2.07222 48.6174 4.06348 46.0134" stroke="#FA360A" stroke-width="2" stroke-miterlimit="10" stroke-linecap="round" stroke-linejoin="round"></path><path d="M19.3809 61.484H16.3174C12.9476 61.484 10.1904 58.7268 10.1904 55.357C10.1904 51.9872 12.9476 49.23 16.3174 49.23H19.3809" stroke="#FA360A" stroke-width="2" stroke-miterlimit="10" stroke-linecap="round" stroke-linejoin="round"></path><path d="M14.7857 55.357H7.12697" stroke="#FA360A" stroke-width="2" stroke-miterlimit="10" stroke-linecap="round" stroke-linejoin="round"></path><path d="M4.06348 46.1666L20.9126 29.3174" stroke="#FA360A" stroke-width="2" stroke-miterlimit="10" stroke-linecap="round" stroke-linejoin="round"></path><path d="M14.7857 29.3174H20.9126V35.4444" stroke="#FA360A" stroke-width="2" stroke-miterlimit="10" stroke-linecap="round" stroke-linejoin="round"></path><path d="M41.5911 42.4904C38.0681 42.4904 34.3919 41.1118 31.6348 38.3547C26.1205 32.8404 26.1205 23.65 31.6348 18.1357C37.1491 12.6214 46.3395 12.6214 51.8538 18.1357C54.6109 20.8928 56.1427 24.7222 55.9895 28.3984C55.9895 31.4618 54.9173 34.3722 52.926 36.9761" stroke="#333333" stroke-width="2" stroke-miterlimit="10" stroke-linecap="round" stroke-linejoin="round"></path><path d="M37.7618 33.9126H43.8887C45.5737 33.9126 46.9522 32.5341 46.9522 30.8491C46.9522 29.1642 45.5737 27.7857 43.8887 27.7857H40.8253C39.1403 27.7857 37.7618 26.4071 37.7618 24.7222C37.7618 23.0373 39.1403 21.6587 40.8253 21.6587H46.9522" stroke="#333333" stroke-width="2" stroke-miterlimit="10" stroke-linecap="round" stroke-linejoin="round"></path><path d="M42.357 18.5952V21.6587" stroke="#333333" stroke-width="2" stroke-miterlimit="10" stroke-linecap="round" stroke-linejoin="round"></path><path d="M42.357 33.9126V36.9761" stroke="#333333" stroke-width="2" stroke-miterlimit="10" stroke-linecap="round" stroke-linejoin="round"></path><path d="M53.0792 36.9761L36.23 53.8253" stroke="#333333" stroke-width="2" stroke-miterlimit="10" stroke-linecap="round" stroke-linejoin="round"></path><path d="M42.357 53.8253H36.23V47.6983" stroke="#000333" stroke-width="2" stroke-miterlimit="10" stroke-linecap="round" stroke-linejoin="round"></path></svg>